<?xml version="1.0" encoding="utf-8" ?><svg xmlns="http://www.w3.org/2000/svg" xmlns:xlink="http://www.w3.org/1999/xlink" width="1024" height="1024" viewBox="0 0 1024 1024" xmlns:c2pa="http://c2pa.org/manifest"><metadata><c2pa:manifest>AAAgRWp1bWIAAAAeanVtZGMycGEAEQAQgAAAqgA4m3EDYzJwYQAAAAxBanVtYgAAAEdqdW1kYzJtYQARABCAAACqADibcQN1cm46YzJwYTowNmQ5NmE2Zi05OWY2LTRlOTEtYmQwZS1mM2RjYWRlYWVkNTkAAAAB4mp1bWIAAAApanVtZGMyYXMAEQAQgAAAqgA4m3EDYzJwYS5hc3NlcnRpb25zAAAAAO1qdW1iAAAAQWp1bWRjYm9yABEAEIAAAKoAOJtxE2MycGEuYWN0aW9ucy52MgAAAAAYYzJzaJwfbmnM4JiOzX0MzBCBL7UAAACkY2JvcqFnYWN0aW9uc4GjZmFjdGlvbmxjMnBhLmNyZWF0ZWRxZGlnaXRhbFNvdXJjZVR5cGV4Rmh0dHA6Ly9jdi5pcHRjLm9yZy9uZXdzY29kZXMvZGlnaXRhbHNvdXJjZXR5cGUvdHJhaW5lZEFsZ29yaXRobWljTWVkaWFrZGVzY3JpcHRpb252Q3JlYXRlZCBieSBSZWNyYWZ0IEFJLgAAAMRqdW1iAAAAQGp1bWRjYm9yABEAEIAAAKoAOJtxE2MycGEuaGFzaC5kYXRhAAAAABhjMnNo1ZF2SA/gyO3yBEUwddaMFAAAAHxjYm9ypWpleGNsdXNpb25zgaJlc3RhcnQY22ZsZW5ndGgZEIxkbmFtZW5qdW1iZiBtYW5pZmVzdGNhbGdmc2hhMjU2ZGhhc2hYIAR9jz+s2RFqn6btk8NhewwAm6voBK2QzrsEhewmDhb8Y3BhZEkAAAAAAAAAAAAAAAI0anVtYgAAACdqdW1kYzJjbAARABCAAACqADibcQNjMnBhLmNsYWltLnYyAAAAAgVjYm9ypmppbnN0YW5jZUlEeCx4bXA6aWlkOmE1OTk0ZWRkLTlmOTctNGJjNS05OTU0LWE4YTRmMGU0Njk5N3RjbGFpbV9nZW5lcmF0b3JfaW5mb6NkbmFtZWpyZWNyYWZ0LmFpZ3ZlcnNpb254KDgxY2U4MmUyYzVjM2NiZmJlOGM2ZmJlMTc5ZDVmOGQ5MWM0MDljZTF3b3JnLmNvbnRlbnRhdXRoLmMycGFfcnNmMC45MC43aXNpZ25hdHVyZXhNc2VsZiNqdW1iZj0vYzJwYS91cm46YzJwYTowNmQ5NmE2Zi05OWY2LTRlOTEtYmQwZS1mM2RjYWRlYWVkNTkvYzJwYS5zaWduYXR1cmVyY3JlYXRlZF9hc3NlcnRpb25zgqJjdXJseCpzZWxmI2p1bWJmPWMycGEuYXNzZXJ0aW9ucy9jMnBhLmFjdGlvbnMudjJkaGFzaFgg/XiKxio3/x7sWcMHX20UqSLX9RKsnE0AQqeJKmZjsoGiY3VybHgpc2VsZiNqdW1iZj1jMnBhLmFzc2VydGlvbnMvYzJwYS5oYXNoLmRhdGFkaGFzaFgg5MBDxno5J5U9BY9zkV/Tb4HAFLMBztB/XUC8Kbx322JoZGM6dGl0bGV4GlJlY3JhZnQgQUkgR2VuZXJhdGVkIEltYWdlY2FsZ2ZzaGEyNTYAAAfcanVtYgAAAChqdW1kYzJjcwARABCAAACqADibcQNjMnBhLnNpZ25hdHVyZQAAAAesY2JvctKEWQOwogEmGCGCWQHnMIIB4zCCAYmgAwIBAgIJALfeWmNDUW56MAoGCCqGSM49BAMCMEAxHzAdBgNVBAMMFlJlY3JhZnQgU3RhZ2luZyBEZXYgQ0ExEDAOBgNVBAoMB1JlY3JhZnQxCzAJBgNVBAYTAlVTMB4XDTI2MDYxMjE5NDM1MFoXDTI3MDYxMjE5NDM1MFowNzELMAkGA1UEBhMCVVMxEzARBgNVBAoTClJlY3JhZnQgQUkxEzARBgNVBAMTCnJlY3JhZnQuYWkwWTATBgcqhkjOPQIBBggqhkjOPQMBBwNCAARKaTVbACsg/DeG3LeOxYdID/VA6EFG73E6Oknb+KIiCFJygRUz4ueN2z/t2qYb6CIUvS8RvgOiiClfoqsYtw81o3UwczAMBgNVHRMBAf8EAjAAMA4GA1UdDwEB/wQEAwIGwDATBgNVHSUEDDAKBggrBgEFBQcDBDAdBgNVHQ4EFgQULzHpBen96SL1y4IPHa8MkMshXf0wHwYDVR0jBBgwFoAUAgsqOBrKqpdK//m/kxZo7ZR4ebcwCgYIKoZIzj0EAwIDSAAwRQIgU8hKW0aXvvk8SQgVFNkax69Ym9ae8GsT2RZTQw+B51ACIQC0D4BkEoRD4N0r2ZRkNy0HZaW3WICy/QZGN95ilF4yzFkBvTCCAbkwggFfoAMCAQICCQCc+Wg7T6ATbzAKBggqhkjOPQQDAjBAMR8wHQYDVQQDDBZSZWNyYWZ0IFN0YWdpbmcgRGV2IENBMRAwDgYDVQQKDAdSZWNyYWZ0MQswCQYDVQQGEwJVUzAeFw0yNjA2MTIxOTQwMTZaFw0yODA2MTExOTQwMTZaMEAxHzAdBgNVBAMMFlJlY3JhZnQgU3RhZ2luZyBEZXYgQ0ExEDAOBgNVBAoMB1JlY3JhZnQxCzAJBgNVBAYTAlVTMFkwEwYHKoZIzj0CAQYIKoZIzj0DAQcDQgAEQ9IQBlcVbKaKPYrQSfOhL/00s7xUDC7RinIuLO/I1k99y9yh6oWF9kPxaP+tx1v1PeOL3yrVquJ730H0ZGiDyqNCMEAwDwYDVR0TAQH/BAUwAwEB/zAOBgNVHQ8BAf8EBAMCAYYwHQYDVR0OBBYEFAILKjgayqqXSv/5v5MWaO2UeHm3MAoGCCqGSM49BAMCA0gAMEUCIFQwNImLlYDeQhjgF+ZiqTbgcuzSqmOJw3Q2lQ/hu83FAiEA9O8cLm/xfoVLqB4jtdbuHzi3WL+p2RN+DRGkwpYswVuhY3BhZFkDpAAAAAAAAAAAAAAAAAAAAAAAAAAAAAAAAAAAAAAAAAAAAAAAAAAAAAAAAAAAAAAAAAAAAAAAAAAAAAAAAAAAAAAAAAAAAAAAAAAAAAAAAAAAAAAAAAAAAAAAAAAAAAAAAAAAAAAAAAAAAAAAAAAAAAAAAAAAAAAAAAAAAAAAAAAAAAAAAAAAAAAAAAAAAAAAAAAAAAAAAAAAAAAAAAAAAAAAAAAAAAAAAAAAAAAAAAAAAAAAAAAAAAAAAAAAAAAAAAAAAAAAAAAAAAAAAAAAAAAAAAAAAAAAAAAAAAAAAAAAAAAAAAAAAAAAAAAAAAAAAAAAAAAAAAAAAAAAAAAAAAAAAAAAAAAAAAAAAAAAAAAAAAAAAAAAAAAAAAAAAAAAAAAAAAAAAAAAAAAAAAAAAAAAAAAAAAAAAAAAAAAAAAAAAAAAAAAAAAAAAAAAAAAAAAAAAAAAAAAAAAAAAAAAAAAAAAAAAAAAAAAAAAAAAAAAAAAAAAAAAAAAAAAAAAAAAAAAAAAAAAAAAAAAAAAAAAAAAAAAAAAAAAAAAAAAAAAAAAAAAAAAAAAAAAAAAAAAAAAAAAAAAAAAAAAAAAAAAAAAAAAAAAAAAAAAAAAAAAAAAAAAAAAAAAAAAAAAAAAAAAAAAAAAAAAAAAAAAAAAAAAAAAAAAAAAAAAAAAAAAAAAAAAAAAAAAAAAAAAAAAAAAAAAAAAAAAAAAAAAAAAAAAAAAAAAAAAAAAAAAAAAAAAAAAAAAAAAAAAAAAAAAAAAAAAAAAAAAAAAAAAAAAAAAAAAAAAAAAAAAAAAAAAAAAAAAAAAAAAAAAAAAAAAAAAAAAAAAAAAAAAAAAAAAAAAAAAAAAAAAAAAAAAAAAAAAAAAAAAAAAAAAAAAAAAAAAAAAAAAAAAAAAAAAAAAAAAAAAAAAAAAAAAAAAAAAAAAAAAAAAAAAAAAAAAAAAAAAAAAAAAAAAAAAAAAAAAAAAAAAAAAAAAAAAAAAAAAAAAAAAAAAAAAAAAAAAAAAAAAAAAAAAAAAAAAAAAAAAAAAAAAAAAAAAAAAAAAAAAAAAAAAAAAAAAAAAAAAAAAAAAAAAAAAAAAAAAAAAAAAAAAAAAAAAAAAAAAAAAAAAAAAAAAAAAAAAAAAAAAAAAAAAAAAAAAAAAAAAAAAAAAAAAAAAAAAAAAAAAAAAAAAAAAAAAAAAAAAAAAAAAAAAAAAAAAAAAAAAAAAAAAAAAAAAAAAAAAAAAAAAAA9lhAHSyujWxwGRL+spHaieseC0GjAWjBZAsq8qJnBV+CatEiVXXnSyTfFlOsdSpw3PN0wsph5KGtyx7x2ND/92ZkyQAAE95qdW1iAAAAR2p1bWRjMm1hABEAEIAAAKoAOJtxA3VybjpjMnBhOmYxZjkxOWI5LWQyNTItNDdmZS05ZTcxLTY3OGNjZWNlMTIyNAAAAAkdanVtYgAAAClqdW1kYzJhcwARABCAAACqADibcQNjMnBhLmFzc2VydGlvbnMAAAAGOmp1bWIAAABEanVtZGNib3IAEQAQgAAAqgA4m3ETYzJwYS5pbmdyZWRpZW50LnYzAAAAABhjMnNoyorbjlY8msAQM7xyTWPazgAABe5jYm9yp2xyZWxhdGlvbnNoaXBocGFyZW50T2ZoZGM6dGl0bGVmc291cmNlaWRjOmZvcm1hdG1pbWFnZS9zdmcreG1scXZhbGlkYXRpb25SZXN1bHRzoW5hY3RpdmVNYW5pZmVzdKNnc3VjY2Vzc4WjZGNvZGV4HWNsYWltU2lnbmF0dXJlLmluc2lkZVZhbGlkaXR5Y3VybHhNc2VsZiNqdW1iZj0vYzJwYS91cm46YzJwYTowNmQ5NmE2Zi05OWY2LTRlOTEtYmQwZS1mM2RjYWRlYWVkNTkvYzJwYS5zaWduYXR1cmVrZXhwbGFuYXRpb251Y2xhaW0gc2lnbmF0dXJlIHZhbGlko2Rjb2RleBhjbGFpbVNpZ25hdHVyZS52YWxpZGF0ZWRjdXJseE1zZWxmI2p1bWJmPS9jMnBhL3VybjpjMnBhOjA2ZDk2YTZmLTk5ZjYtNGU5MS1iZDBlLWYzZGNhZGVhZWQ1OS9jMnBhLnNpZ25hdHVyZWtleHBsYW5hdGlvbnVjbGFpbSBzaWduYXR1cmUgdmFsaWSjZGNvZGV4GWFzc2VydGlvbi5oYXNoZWRVUkkubWF0Y2hjdXJseF5zZWxmI2p1bWJmPS9jMnBhL3VybjpjMnBhOjA2ZDk2YTZmLTk5ZjYtNGU5MS1iZDBlLWYzZGNhZGVhZWQ1OS9jMnBhLmFzc2VydGlvbnMvYzJwYS5hY3Rpb25zLnYya2V4cGxhbmF0aW9ueD5oYXNoZWQgdXJpIG1hdGNoZWQ6IHNlbGYjanVtYmY9YzJwYS5hc3NlcnRpb25zL2MycGEuYWN0aW9ucy52MqNkY29kZXgZYXNzZXJ0aW9uLmhhc2hlZFVSSS5tYXRjaGN1cmx4XXNlbGYjanVtYmY9L2MycGEvdXJuOmMycGE6MDZkOTZhNmYtOTlmNi00ZTkxLWJkMGUtZjNkY2FkZWFlZDU5L2MycGEuYXNzZXJ0aW9ucy9jMnBhLmhhc2guZGF0YWtleHBsYW5hdGlvbng9aGFzaGVkIHVyaSBtYXRjaGVkOiBzZWxmI2p1bWJmPWMycGEuYXNzZXJ0aW9ucy9jMnBhLmhhc2guZGF0YaNkY29kZXgYYXNzZXJ0aW9uLmRhdGFIYXNoLm1hdGNoY3VybHhdc2VsZiNqdW1iZj0vYzJwYS91cm46YzJwYTowNmQ5NmE2Zi05OWY2LTRlOTEtYmQwZS1mM2RjYWRlYWVkNTkvYzJwYS5hc3NlcnRpb25zL2MycGEuaGFzaC5kYXRha2V4cGxhbmF0aW9ub2RhdGEgaGFzaCB2YWxpZG1pbmZvcm1hdGlvbmFsgGdmYWlsdXJlgaNkY29kZXgbc2lnbmluZ0NyZWRlbnRpYWwudW50cnVzdGVkY3VybHhNc2VsZiNqdW1iZj0vYzJwYS91cm46YzJwYTowNmQ5NmE2Zi05OWY2LTRlOTEtYmQwZS1mM2RjYWRlYWVkNTkvYzJwYS5zaWduYXR1cmVrZXhwbGFuYXRpb254HXNpZ25pbmcgY2VydGlmaWNhdGUgdW50cnVzdGVkamluc3RhbmNlSUR4LHhtcDppaWQ6MzVlYzFiZDctNTVkOC00NmRlLWE4YzEtYzhmYWU0OWZhYmMxbmFjdGl2ZU1hbmlmZXN0o2N1cmx4PnNlbGYjanVtYmY9L2MycGEvdXJuOmMycGE6MDZkOTZhNmYtOTlmNi00ZTkxLWJkMGUtZjNkY2FkZWFlZDU5Y2FsZ2ZzaGEyNTZkaGFzaFggit2lAOK2NIq24dgkHoyY1Ksc9KJQm8Z4TSMPZXVmkTpuY2xhaW1TaWduYXR1cmWjY3VybHhNc2VsZiNqdW1iZj0vYzJwYS91cm46YzJwYTowNmQ5NmE2Zi05OWY2LTRlOTEtYmQwZS1mM2RjYWRlYWVkNTkvYzJwYS5zaWduYXR1cmVjYWxnZnNoYTI1NmRoYXNoWCCaSa9sCk04FiALxG+rEN0x+ba7teI3kRsAYwYBZ0H4nQAAAe5qdW1iAAAAQWp1bWRjYm9yABEAEIAAAKoAOJtxE2MycGEuYWN0aW9ucy52MgAAAAAYYzJzaJjG2wsQzm1RcRcdFxOWcjoAAAGlY2JvcqFnYWN0aW9uc4KiZmFjdGlvbmtjMnBhLm9wZW5lZGpwYXJhbWV0ZXJzoWtpbmdyZWRpZW50c4GiY3VybHgtc2VsZiNqdW1iZj1jMnBhLmFzc2VydGlvbnMvYzJwYS5pbmdyZWRpZW50LnYzZGhhc2hYIKluzWjCfuvuYOTJLM8MkP7Bb2U+a/ykQ62HWPjUnhpYpGZhY3Rpb25sYzJwYS5jcmVhdGVkanBhcmFtZXRlcnOha2luZ3JlZGllbnRzgaJjdXJseC1zZWxmI2p1bWJmPWMycGEuYXNzZXJ0aW9ucy9jMnBhLmluZ3JlZGllbnQudjNkaGFzaFggqW7NaMJ+6+5g5MkszwyQ/sFvZT5r/KRDrYdY+NSeGlhxZGlnaXRhbFNvdXJjZVR5cGV4QWh0dHA6Ly9jdi5pcHRjLm9yZy9uZXdzY29kZXMvZGlnaXRhbHNvdXJjZXR5cGUvY29tcG9zaXRlU3ludGhldGlja2Rlc2NyaXB0aW9ueB9Db21wb3NlZCBpbiB0aGUgUmVjcmFmdCBlZGl0b3IuAAAAxGp1bWIAAABAanVtZGNib3IAEQAQgAAAqgA4m3ETYzJwYS5oYXNoLmRhdGEAAAAAGGMyc2jJZ81O5bT32ROcjSSUWCCQAAAAfGNib3KlamV4Y2x1c2lvbnOBomVzdGFydBjsZmxlbmd0aBkrCGRuYW1lbmp1bWJmIG1hbmlmZXN0Y2FsZ2ZzaGEyNTZkaGFzaFggMv4IrPr1HAyXYrOILk7aLJ/XQOCemq8SvXBcNRaBneJjcGFkSQAAAAAAAAAAAAAAApZqdW1iAAAAJ2p1bWRjMmNsABEAEIAAAKoAOJtxA2MycGEuY2xhaW0udjIAAAACZ2Nib3Knamluc3RhbmNlSUR4LHhtcDppaWQ6M2VlMGY4ZWMtOTA1MS00OTI3LWFkMTItZmI2MGRlMTE0ZWE0dGNsYWltX2dlbmVyYXRvcl9pbmZvo2RuYW1lanJlY3JhZnQuYWlndmVyc2lvbngoODFjZTgyZTJjNWMzY2JmYmU4YzZmYmUxNzlkNWY4ZDkxYzQwOWNlMXdvcmcuY29udGVudGF1dGguYzJwYV9yc2YwLjkwLjdpc2lnbmF0dXJleE1zZWxmI2p1bWJmPS9jMnBhL3VybjpjMnBhOmYxZjkxOWI5LWQyNTItNDdmZS05ZTcxLTY3OGNjZWNlMTIyNC9jMnBhLnNpZ25hdHVyZXJjcmVhdGVkX2Fzc2VydGlvbnOComN1cmx4KnNlbGYjanVtYmY9YzJwYS5hc3NlcnRpb25zL2MycGEuYWN0aW9ucy52MmRoYXNoWCCXDgV7FDp78wzgzIT674jvG8INymtX5OVAXx+M/AVh1KJjdXJseClzZWxmI2p1bWJmPWMycGEuYXNzZXJ0aW9ucy9jMnBhLmhhc2guZGF0YWRoYXNoWCB/0WGl+pv2G4I5K8vJNL4YpwgBWokb1EraD0Al7XGaWnNnYXRoZXJlZF9hc3NlcnRpb25zgaJjdXJseC1zZWxmI2p1bWJmPWMycGEuYXNzZXJ0aW9ucy9jMnBhLmluZ3JlZGllbnQudjNkaGFzaFggqW7NaMJ+6+5g5MkszwyQ/sFvZT5r/KRDrYdY+NSeGlhoZGM6dGl0bGVtUmVjcmFmdCBJbWFnZWNhbGdmc2hhMjU2AAAH3Gp1bWIAAAAoanVtZGMyY3MAEQAQgAAAqgA4m3EDYzJwYS5zaWduYXR1cmUAAAAHrGNib3LShFkDsKIBJhghglkB5zCCAeMwggGJoAMCAQICCQC33lpjQ1FuejAKBggqhkjOPQQDAjBAMR8wHQYDVQQDDBZSZWNyYWZ0IFN0YWdpbmcgRGV2IENBMRAwDgYDVQQKDAdSZWNyYWZ0MQswCQYDVQQGEwJVUzAeFw0yNjA2MTIxOTQzNTBaFw0yNzA2MTIxOTQzNTBaMDcxCzAJBgNVBAYTAlVTMRMwEQYDVQQKEwpSZWNyYWZ0IEFJMRMwEQYDVQQDEwpyZWNyYWZ0LmFpMFkwEwYHKoZIzj0CAQYIKoZIzj0DAQcDQgAESmk1WwArIPw3hty3jsWHSA/1QOhBRu9xOjpJ2/iiIghScoEVM+Lnjds/7dqmG+giFL0vEb4DoogpX6KrGLcPNaN1MHMwDAYDVR0TAQH/BAIwADAOBgNVHQ8BAf8EBAMCBsAwEwYDVR0lBAwwCgYIKwYBBQUHAwQwHQYDVR0OBBYEFC8x6QXp/eki9cuCDx2vDJDLIV39MB8GA1UdIwQYMBaAFAILKjgayqqXSv/5v5MWaO2UeHm3MAoGCCqGSM49BAMCA0gAMEUCIFPISltGl775PEkIFRTZGsevWJvWnvBrE9kWU0MPgedQAiEAtA+AZBKEQ+DdK9mUZDctB2Wlt1iAsv0GRjfeYpReMsxZAb0wggG5MIIBX6ADAgECAgkAnPloO0+gE28wCgYIKoZIzj0EAwIwQDEfMB0GA1UEAwwWUmVjcmFmdCBTdGFnaW5nIERldiBDQTEQMA4GA1UECgwHUmVjcmFmdDELMAkGA1UEBhMCVVMwHhcNMjYwNjEyMTk0MDE2WhcNMjgwNjExMTk0MDE2WjBAMR8wHQYDVQQDDBZSZWNyYWZ0IFN0YWdpbmcgRGV2IENBMRAwDgYDVQQKDAdSZWNyYWZ0MQswCQYDVQQGEwJVUzBZMBMGByqGSM49AgEGCCqGSM49AwEHA0IABEPSEAZXFWymij2K0EnzoS/9NLO8VAwu0YpyLizvyNZPfcvcoeqFhfZD8Wj/rcdb9T3ji98q1arie99B9GRog8qjQjBAMA8GA1UdEwEB/wQFMAMBAf8wDgYDVR0PAQH/BAQDAgGGMB0GA1UdDgQWBBQCCyo4Gsqql0r/+b+TFmjtlHh5tzAKBggqhkjOPQQDAgNIADBFAiBUMDSJi5WA3kIY4BfmYqk24HLs0qpjicN0NpUP4bvNxQIhAPTvHC5v8X6FS6geI7XW7h84t1i/qdkTfg0RpMKWLMFboWNwYWRZA6QAAAAAAAAAAAAAAAAAAAAAAAAAAAAAAAAAAAAAAAAAAAAAAAAAAAAAAAAAAAAAAAAAAAAAAAAAAAAAAAAAAAAAAAAAAAAAAAAAAAAAAAAAAAAAAAAAAAAAAAAAAAAAAAAAAAAAAAAAAAAAAAAAAAAAAAAAAAAAAAAAAAAAAAAAAAAAAAAAAAAAAAAAAAAAAAAAAAAAAAAAAAAAAAAAAAAAAAAAAAAAAAAAAAAAAAAAAAAAAAAAAAAAAAAAAAAAAAAAAAAAAAAAAAAAAAAAAAAAAAAAAAAAAAAAAAAAAAAAAAAAAAAAAAAAAAAAAAAAAAAAAAAAAAAAAAAAAAAAAAAAAAAAAAAAAAAAAAAAAAAAAAAAAAAAAAAAAAAAAAAAAAAAAAAAAAAAAAAAAAAAAAAAAAAAAAAAAAAAAAAAAAAAAAAAAAAAAAAAAAAAAAAAAAAAAAAAAAAAAAAAAAAAAAAAAAAAAAAAAAAAAAAAAAAAAAAAAAAAAAAAAAAAAAAAAAAAAAAAAAAAAAAAAAAAAAAAAAAAAAAAAAAAAAAAAAAAAAAAAAAAAAAAAAAAAAAAAAAAAAAAAAAAAAAAAAAAAAAAAAAAAAAAAAAAAAAAAAAAAAAAAAAAAAAAAAAAAAAAAAAAAAAAAAAAAAAAAAAAAAAAAAAAAAAAAAAAAAAAAAAAAAAAAAAAAAAAAAAAAAAAAAAAAAAAAAAAAAAAAAAAAAAAAAAAAAAAAAAAAAAAAAAAAAAAAAAAAAAAAAAAAAAAAAAAAAAAAAAAAAAAAAAAAAAAAAAAAAAAAAAAAAAAAAAAAAAAAAAAAAAAAAAAAAAAAAAAAAAAAAAAAAAAAAAAAAAAAAAAAAAAAAAAAAAAAAAAAAAAAAAAAAAAAAAAAAAAAAAAAAAAAAAAAAAAAAAAAAAAAAAAAAAAAAAAAAAAAAAAAAAAAAAAAAAAAAAAAAAAAAAAAAAAAAAAAAAAAAAAAAAAAAAAAAAAAAAAAAAAAAAAAAAAAAAAAAAAAAAAAAAAAAAAAAAAAAAAAAAAAAAAAAAAAAAAAAAAAAAAAAAAAAAAAAAAAAAAAAAAAAAAAAAAAAAAAAAAAAAAAAAAAAAAAAAAAAAAAAAAAAAAAAAAAAAAAAAAAAAAAAAAAAAAAAAAAAAAAAAAAAAAAAAAAAAAAAAAAAAAAAAAAAAAAAAAAAAAAAAAAAAAAAAAAAAAAAAAAAAAAAAAAAAAAAAAAAAAAAAAAAAAAPZYQNUxZV9jYmWvxwHyFVw1DL/2xACYkZW+is9l/BLWI5tSNtQkrehwzk9vV7ROGm4WyJbYzP4B/69O0I1hmWNisH4=</c2pa:manifest></metadata><path fill="#15A6E5" d="M263.245 581.515L474.042 371.039C497.547 347.251 521.205 323.614 545.012 300.13C556.29 288.918 568.357 276.043 580.43 265.842C588.453 259.063 598.831 255.616 609.248 255.033C637.283 253.463 647.23 269.716 665.514 286.012C682.906 303.931 701.506 321.328 718.985 339.207C724.085 344.425 737.826 356.93 741.52 362.195C758.643 379.815 778.277 391.479 777.697 419.351C777.55 426.436 775.183 437.071 771.349 442.775C762.064 456.589 745.743 470.796 733.835 482.731L703.131 513.13C697.337 518.974 691.582 525.406 685.663 531.067C684.841 531.852 684.008 532.625 683.165 533.387C683.361 577.875 686.779 618.122 652.938 652.966C624.959 681.774 582.024 693.768 543.676 682.354C540.307 681.351 529.965 676.158 527.729 676.9L477.69 726.983C467.438 737.267 453.899 751.526 443.296 760.924C436.097 754.376 390.366 705.927 385.953 704.099C383.455 702.4 366.871 685.611 364.144 682.808C350.422 668.706 335.262 654.707 321.805 640.505C317.338 634.836 304.619 622.545 299.071 617.085C287.068 605.29 275.126 593.433 263.245 581.515Z"/><path fill="#F6F7F9" d="M527.729 676.9C492.827 660.635 469.36 632.896 464.516 593.967C463.316 584.329 463.594 574.625 463.628 564.94L463.728 526.957L463.54 500.247C463.46 490.557 462.237 479.989 468.874 471.985C476.663 462.591 488.985 464.775 499.754 464.964C504.415 465.061 509.076 464.823 513.703 464.252C538.009 461.211 558.151 447.624 572.865 428.435L573.158 428.045C586.436 439.167 589.577 446.788 606.263 455.475C616.147 460.605 626.901 463.847 637.974 465.034C651.387 466.471 665.093 461.615 675.023 469.541C678.175 472.093 680.443 475.575 681.504 479.49C683.431 486.457 682.41 494.693 682.72 501.855C683.151 511.807 682.078 523.075 683.112 532.923L683.165 533.387C683.361 577.875 686.779 618.122 652.938 652.966C624.959 681.774 582.024 693.768 543.676 682.354C540.307 681.351 529.965 676.158 527.729 676.9Z"/><path fill="#6EDD97" d="M621.822 520.223C623.542 518.588 623.265 518.32 625.208 517.925C626.542 518.82 626.611 518.863 627.707 520.03C634.219 526.814 641.427 533.655 648.173 540.259C631.952 555.608 616.164 572.282 600.219 587.972C585.058 602.891 569.778 617.692 554.94 632.94C547.765 625.372 540.104 618.255 532.673 610.906L497.06 575.337C504.869 567.318 512.856 560.068 520.754 551.779C531.867 563.548 543.335 574.977 555.142 586.049L621.822 520.223Z"/><path fill="#6EDD97" d="M292.986 797.178C299.245 803.2 305.435 809.294 311.554 815.458C322.384 826.372 332.523 834.836 333.019 851.402C333.358 861.667 329.544 871.636 322.441 879.054C314.364 887.624 304.167 892.593 292.404 892.779C278.534 892.998 271.147 888.916 261.399 879.29C235.175 853.396 209.261 827.143 183.153 801.152L158.985 777.352C152.869 771.349 145.069 764.275 140.376 757.33C116.541 722.672 155.037 678.75 191.923 700.06C201.27 705.461 219.403 724.511 227.707 732.823C236.774 740.729 247.196 751.512 255.739 760.084L292.986 797.178Z"/><path fill="#05B7B6" d="M321.805 640.505C335.262 654.707 350.422 668.706 364.144 682.808C366.871 685.611 383.455 702.4 385.953 704.099C378.235 712.412 369.221 720.991 361.15 729.057L316.294 773.895C311.471 778.709 296.042 792.902 292.986 797.178L255.739 760.084C247.196 751.512 236.774 740.729 227.707 732.823C233.215 728.361 246.555 714.349 252.335 708.59L300.069 661.272C304.447 656.93 317.705 643.112 321.805 640.505Z"/><path fill="#05B7B6" d="M715.106 258.518C718.096 254.192 747.858 224.923 752.42 221.791C755.954 219.33 759.965 217.641 764.195 216.832C772.443 215.287 779.479 217.268 786.235 221.818C791.752 226.893 799.151 233.582 804.024 239.138C826.397 273.485 785.216 290.315 769.755 312.576C773.309 316.127 776.91 319.828 780.623 323.195C769.134 334.333 751.777 350.51 741.52 362.195C737.826 356.93 724.085 344.425 718.985 339.207C701.506 321.328 682.906 303.931 665.514 286.012C676.81 274.014 691.705 259.205 703.657 247.846C706.523 250.038 712.239 255.777 715.106 258.518Z"/><path fill="#6EDD97" d="M715.106 258.518C718.096 254.192 747.858 224.923 752.42 221.791C755.954 219.33 759.965 217.641 764.195 216.832C772.443 215.287 779.479 217.268 786.235 221.818C791.752 226.893 799.151 233.582 804.024 239.138C826.397 273.485 785.216 290.315 769.755 312.576C764.896 308.561 755.988 299.256 751.16 294.443C739.208 282.402 727.19 270.426 715.106 258.518Z"/><path fill="#0C6F9D" d="M786.235 221.818C800.699 208.604 814.992 193.883 828.892 179.993L892.048 117.113L915.777 93.6447C921.208 88.2552 930.691 76.4037 938.692 77.0071C942.039 77.2921 945.108 78.986 947.133 81.6667C951.834 87.8169 950.242 93.9975 945.178 99.1197C936.887 107.507 928.441 115.717 920.115 124.067L855.121 188.524L820.923 222.398C817.63 225.684 807.035 236.774 804.024 239.138C799.151 233.582 791.752 226.893 786.235 221.818Z"/></svg>